<?xml version="1.0" encoding="UTF-8"?>
<svg xmlns="http://www.w3.org/2000/svg" viewBox="0 0 100 100">
  <defs>
    <linearGradient id="orangeGradient" x1="0%" y1="0%" x2="100%" y2="100%">
      <stop offset="0%" style="stop-color:#FF4500;stop-opacity:1" />
      <stop offset="100%" style="stop-color:#FF6347;stop-opacity:1" />
    </linearGradient>
    <filter id="shadow" x="-10%" y="-10%" width="120%" height="120%">
      <feDropShadow dx="1" dy="1" stdDeviation="1" flood-color="#FF4500" flood-opacity="0.3"/>
    </filter>
  </defs>
  
  <!-- Elegant Fork -->
  <g transform="matrix(2.2,0,0,2.2,28,10)">
    <!-- Fork Shape -->
    <path d="M10 25 L10 85 
             L15 85 L15 88 L15 85
             L20 85 L20 25
             L25 25 L5 25
             M10 45 L20 45
             M10 8 L10 25
             M15 5 L15 25
             M20 8 L20 25
             M10 5 L10 8
             M15 3 L15 5
             M20 5 L20 8" 
          fill="url(#orangeGradient)"
          stroke="#FF4500" 
          stroke-width="2"
          stroke-linecap="round"
          stroke-linejoin="round" />
  </g>
</svg>