<svg data-v-423bf9ae="" xmlns="http://www.w3.org/2000/svg" viewBox="0 0 292.03509298324377 163" class="iconAbove"><!----><!----><!----><g data-v-423bf9ae="" id="6127f0be-7a5b-4cda-8a53-6cfd99be0641" fill="black" transform="matrix(3.5087718963623047,0,0,3.5087718963623047,-0.2456137090921402,94.2631607055664)"><path d="M9.34 15.62L9.34 15.62L9.34 15.62Q9.11 16.13 8.44 16.13L8.44 16.13L8.44 16.13Q7.77 16.13 7.37 15.78L7.37 15.78L7.37 15.78Q6.97 15.43 6.73 14.62L6.73 14.62L6.73 14.62Q6.48 13.80 6.31 12.46L6.31 12.46L2.21 12.46L2.21 12.46Q1.50 14.07 1.50 14.95L1.50 14.95L1.50 14.95Q1.50 15.36 1.67 15.62L1.67 15.62L1.67 15.62Q1.33 16.13 0.70 16.13L0.70 16.13L0.70 16.13Q0.07 16.13 0.07 15.43L0.07 15.43L0.07 15.43Q0.07 15.04 0.32 14.27L0.32 14.27L0.32 14.27Q0.56 13.51 2.11 10.28L2.11 10.28L2.11 10.28Q3.67 7.06 4.05 5.90L4.05 5.90L4.05 5.90Q4.44 4.75 4.44 4.41L4.44 4.41L4.44 4.41Q4.44 4.07 4.40 3.91L4.40 3.91L4.40 3.91Q4.86 3.58 5.40 3.58L5.40 3.58L5.40 3.58Q5.95 3.58 6.28 3.86L6.28 3.86L6.28 3.86Q6.61 4.13 6.85 4.91L6.85 4.91L6.85 4.91Q7.10 5.70 7.41 9.07L7.41 9.07L7.41 9.07Q7.73 12.45 8.13 13.85L8.13 13.85L8.13 13.85Q8.43 14.88 9.34 15.62ZM5.40 5.71L5.40 5.71L5.40 5.71Q5.08 6.47 4.07 8.51L4.07 8.51L4.07 8.51Q3.07 10.56 2.63 11.51L2.63 11.51L6.22 11.51L6.22 11.51Q6.15 10.63 5.99 9.21L5.99 9.21L5.99 9.21Q5.82 7.78 5.77 7.41L5.77 7.41L5.77 7.41Q5.60 6.41 5.40 5.71ZM11.66 16.13L11.66 16.13L11.66 16.13Q10.57 16.13 10.57 14.28L10.57 14.28L10.57 14.28Q10.57 13.51 10.86 11.68L10.86 11.68L10.86 11.68Q11.16 9.84 11.16 8.67L11.16 8.67L11.16 8.67Q11.16 7.49 10.86 6.93L10.86 6.93L10.86 6.93Q11.21 6.61 11.72 6.61L11.72 6.61L11.72 6.61Q12.74 6.61 12.74 7.67L12.74 7.67L12.74 7.67Q12.74 8.05 12.57 9.23L12.57 9.23L12.57 9.23Q12.39 10.40 12.33 10.84L12.33 10.84L12.33 10.84Q13.09 8.85 14.04 7.65L14.04 7.65L14.04 7.65Q14.98 6.45 15.60 6.45L15.60 6.45L15.60 6.45Q15.95 6.45 16.12 6.79L16.12 6.79L16.12 6.79Q16.30 7.13 16.30 7.48L16.30 7.48L16.30 7.48Q16.30 7.83 16.21 8.19L16.21 8.19L16.21 8.19Q16.00 8.15 15.82 8.15L15.82 8.15L15.82 8.15Q14.92 8.15 14.02 9.20L14.02 9.20L14.02 9.20Q13.12 10.25 12.61 11.51L12.61 11.51L12.61 11.51Q12.10 12.77 12.10 13.59L12.10 13.59L12.10 13.59Q12.10 15.05 12.63 15.62L12.63 15.62L12.63 15.62Q12.19 16.13 11.66 16.13ZM21.84 7.88L21.84 7.88L21.84 7.88Q21.84 7.48 21.69 7.21L21.69 7.21L21.69 7.21Q22.01 6.69 22.68 6.69L22.68 6.69L22.68 6.69Q23.32 6.69 23.32 7.41L23.32 7.41L23.32 7.41Q23.32 8.11 22.75 10.25L22.75 10.25L22.75 10.25Q22.18 12.39 21.58 13.88L21.58 13.88L21.58 13.88Q20.99 15.37 20.29 16.65L20.29 16.65L20.29 16.65Q19.60 17.93 18.66 18.76L18.66 18.76L18.66 18.76Q17.71 19.59 16.72 19.59L16.72 19.59L16.72 19.59Q14.78 19.59 14.78 18.28L14.78 18.28L14.78 18.28Q14.78 17.68 15.23 17.16L15.23 17.16L15.23 17.16Q15.61 18.41 16.90 18.41L16.90 18.41L16.90 18.41Q18.44 18.41 19.74 15.72L19.74 15.72L19.74 15.72Q19.32 15.72 19.14 15.57L19.14 15.57L19.14 15.57Q18.96 15.41 18.87 15.11L18.87 15.11L18.87 15.11Q17.81 10.63 17.19 9.11L17.19 9.11L17.19 9.11Q16.56 7.60 15.97 7.57L15.97 7.57L15.97 7.57Q16.13 7.10 16.46 6.87L16.46 6.87L16.46 6.87Q16.80 6.65 17.12 6.65L17.12 6.65L17.12 6.65Q17.98 6.65 18.55 8.09L18.55 8.09L18.55 8.09Q18.93 9.07 20.19 14.71L20.19 14.71L20.19 14.71Q20.93 12.87 21.39 10.92L21.39 10.92L21.39 10.92Q21.84 8.97 21.84 7.88ZM26.84 16.23L26.84 16.23L26.84 16.23Q25.89 16.23 25.33 15.29L25.33 15.29L25.33 15.29Q24.78 14.35 24.78 12.71L24.78 12.71L24.78 12.71Q24.78 10.08 25.96 8.27L25.96 8.27L25.96 8.27Q27.15 6.45 28.88 6.45L28.88 6.45L28.88 6.45Q30.07 6.45 30.86 7.39L30.86 7.39L30.86 7.39Q30.97 6.96 31.14 6.78L31.14 6.78L31.14 6.78Q31.32 6.59 31.69 6.59L31.69 6.59L31.69 6.59Q32.06 6.59 32.38 6.96L32.38 6.96L32.38 6.96Q32.13 7.63 31.95 9.21L31.95 9.21L31.95 9.21Q31.77 10.79 31.77 12.16L31.77 12.16L31.77 12.16Q31.77 13.52 31.91 14.27L31.91 14.27L31.91 14.27Q32.06 15.02 32.41 15.61L32.41 15.61L32.41 15.61Q32.00 16.13 31.46 16.13L31.46 16.13L31.46 16.13Q30.25 16.13 30.25 13.17L30.25 13.17L30.25 13.17Q30.25 12.70 30.37 11.51L30.37 11.51L30.37 11.51Q29.64 13.54 28.64 14.88L28.64 14.88L28.64 14.88Q27.64 16.23 26.84 16.23ZM28.94 7.42L28.94 7.42L28.94 7.42Q27.75 7.42 27.00 8.81L27.00 8.81L27.00 8.81Q26.25 10.19 26.25 12.36L26.25 12.36L26.25 12.36Q26.25 13.47 26.54 14.11L26.54 14.11L26.54 14.11Q26.82 14.74 27.32 14.74L27.32 14.74L27.32 14.74Q27.82 14.74 28.58 13.65L28.58 13.65L28.58 13.65Q29.34 12.56 29.97 10.98L29.97 10.98L29.97 10.98Q30.60 9.41 30.74 8.15L30.74 8.15L30.74 8.15Q29.79 7.42 28.94 7.42ZM39.89 6.51L39.89 6.51L39.89 6.51Q41.52 6.51 41.52 8.93L41.52 8.93L41.52 8.93Q41.52 9.63 41.36 10.95L41.36 10.95L41.36 10.95Q41.20 12.26 41.20 12.95L41.20 12.95L41.20 12.95Q41.20 14.92 41.82 15.62L41.82 15.62L41.82 15.62Q41.33 16.13 40.84 16.13L40.84 16.13L40.84 16.13Q39.68 16.13 39.68 13.41L39.68 13.41L39.68 13.41Q39.68 12.40 39.91 10.87L39.91 10.87L39.91 10.87Q40.14 9.34 40.14 8.91L40.14 8.91L40.14 8.91Q40.14 8.48 39.97 8.24L39.97 8.24L39.97 8.24Q39.80 7.99 39.38 7.99L39.38 7.99L39.38 7.99Q38.82 7.99 38.04 9.28L38.04 9.28L38.04 9.28Q37.25 10.56 36.72 12.16L36.72 12.16L36.72 12.16Q36.18 13.76 36.18 14.67L36.18 14.67L36.18 14.67Q36.18 15.58 36.41 15.93L36.41 15.93L36.41 15.93Q35.92 16.13 35.48 16.13L35.48 16.13L35.48 16.13Q35.03 16.13 34.84 15.77L34.84 15.77L34.84 15.77Q34.65 15.41 34.65 14.75L34.65 14.75L34.65 14.75Q34.65 14.08 34.92 12.05L34.92 12.05L34.92 12.05Q35.18 10.01 35.18 8.76L35.18 8.76L35.18 8.76Q35.18 7.50 34.89 6.93L34.89 6.93L34.89 6.93Q35.03 6.79 35.31 6.70L35.31 6.70L35.31 6.70Q35.59 6.61 35.81 6.61L35.81 6.61L35.81 6.61Q36.30 6.61 36.54 6.94L36.54 6.94L36.54 6.94Q36.78 7.28 36.78 8.21L36.78 8.21L36.78 8.21Q36.78 9.14 36.37 11.41L36.37 11.41L36.37 11.41Q37.87 7.83 38.92 6.93L38.92 6.93L38.92 6.93Q39.41 6.51 39.89 6.51ZM45.79 16.23L45.79 16.23L45.79 16.23Q44.84 16.23 44.29 15.29L44.29 15.29L44.29 15.29Q43.74 14.35 43.74 12.71L43.74 12.71L43.74 12.71Q43.74 10.08 44.92 8.27L44.92 8.27L44.92 8.27Q46.10 6.45 47.84 6.45L47.84 6.45L47.84 6.45Q49.03 6.45 49.81 7.39L49.81 7.39L49.81 7.39Q49.92 6.96 50.10 6.78L50.10 6.78L50.10 6.78Q50.27 6.59 50.65 6.59L50.65 6.59L50.65 6.59Q51.02 6.59 51.34 6.96L51.34 6.96L51.34 6.96Q51.09 7.63 50.90 9.21L50.90 9.21L50.90 9.21Q50.72 10.79 50.72 12.16L50.72 12.16L50.72 12.16Q50.72 13.52 50.87 14.27L50.87 14.27L50.87 14.27Q51.02 15.02 51.37 15.61L51.37 15.61L51.37 15.61Q50.96 16.13 50.41 16.13L50.41 16.13L50.41 16.13Q49.21 16.13 49.21 13.17L49.21 13.17L49.21 13.17Q49.21 12.70 49.32 11.51L49.32 11.51L49.32 11.51Q48.59 13.54 47.59 14.88L47.59 14.88L47.59 14.88Q46.59 16.23 45.79 16.23ZM47.89 7.42L47.89 7.42L47.89 7.42Q46.70 7.42 45.96 8.81L45.96 8.81L45.96 8.81Q45.21 10.19 45.21 12.36L45.21 12.36L45.21 12.36Q45.21 13.47 45.49 14.11L45.49 14.11L45.49 14.11Q45.78 14.74 46.28 14.74L46.28 14.74L46.28 14.74Q46.77 14.74 47.54 13.65L47.54 13.65L47.54 13.65Q48.30 12.56 48.93 10.98L48.93 10.98L48.93 10.98Q49.56 9.41 49.70 8.15L49.70 8.15L49.70 8.15Q48.75 7.42 47.89 7.42ZM56.97 4.07L56.97 4.07L56.97 4.07Q57.85 3.61 58.84 3.61L58.84 3.61L58.84 3.61Q59.84 3.61 60.45 3.96L60.45 3.96L60.45 3.96Q61.05 4.30 61.05 4.93L61.05 4.93L61.05 4.93Q61.05 5.28 60.92 5.58L60.92 5.58L60.92 5.58Q60.79 5.88 60.68 6.01L60.68 6.01L60.68 6.01Q60.56 6.13 60.34 6.33L60.34 6.33L60.34 6.33Q59.99 5.53 59.48 5.11L59.48 5.11L59.48 5.11Q58.97 4.69 58.20 4.69L58.20 4.69L58.20 4.69Q57.43 4.69 56.85 5.15L56.85 5.15L56.85 5.15Q56.27 5.61 55.94 6.30L55.94 6.30L55.94 6.30Q55.61 6.99 55.38 7.84L55.38 7.84L55.38 7.84Q55.01 9.28 55.01 10.68L55.01 10.68L55.01 10.68Q55.01 12.94 55.73 14.14L55.73 14.14L55.73 14.14Q56.46 15.34 57.90 15.34L57.90 15.34L57.90 15.34Q58.69 15.34 59.30 14.85L59.30 14.85L59.30 14.85Q59.91 14.36 60.23 13.43L60.23 13.43L60.23 13.43Q60.58 13.82 60.58 14.39L60.58 14.39L60.58 14.39Q60.58 15.12 59.63 15.72L59.63 15.72L59.63 15.72Q58.69 16.32 57.51 16.32L57.51 16.32L57.51 16.32Q55.48 16.32 54.49 14.94L54.49 14.94L54.49 14.94Q53.49 13.55 53.49 11.33L53.49 11.33L53.49 11.33Q53.49 9.06 54.36 7.10L54.36 7.10L54.36 7.10Q55.31 4.94 56.97 4.07ZM63.92 16.23L63.92 16.23L63.92 16.23Q62.97 16.23 62.42 15.29L62.42 15.29L62.42 15.29Q61.87 14.35 61.87 12.71L61.87 12.71L61.87 12.71Q61.87 10.08 63.05 8.27L63.05 8.27L63.05 8.27Q64.23 6.45 65.97 6.45L65.97 6.45L65.97 6.45Q67.16 6.45 67.94 7.39L67.94 7.39L67.94 7.39Q68.05 6.96 68.23 6.78L68.23 6.78L68.23 6.78Q68.40 6.59 68.78 6.59L68.78 6.59L68.78 6.59Q69.15 6.59 69.47 6.96L69.47 6.96L69.47 6.96Q69.22 7.63 69.03 9.21L69.03 9.21L69.03 9.21Q68.85 10.79 68.85 12.16L68.85 12.16L68.85 12.16Q68.85 13.52 69.00 14.27L69.00 14.27L69.00 14.27Q69.15 15.02 69.50 15.61L69.50 15.61L69.50 15.61Q69.09 16.13 68.54 16.13L68.54 16.13L68.54 16.13Q67.34 16.13 67.34 13.17L67.34 13.17L67.34 13.17Q67.34 12.70 67.45 11.51L67.45 11.51L67.45 11.51Q66.72 13.54 65.72 14.88L65.72 14.88L65.72 14.88Q64.72 16.23 63.92 16.23ZM66.02 7.42L66.02 7.42L66.02 7.42Q64.83 7.42 64.09 8.81L64.09 8.81L64.09 8.81Q63.34 10.19 63.34 12.36L63.34 12.36L63.34 12.36Q63.34 13.47 63.62 14.11L63.62 14.11L63.62 14.11Q63.91 14.74 64.41 14.74L64.41 14.74L64.41 14.74Q64.90 14.74 65.67 13.65L65.67 13.65L65.67 13.65Q66.43 12.56 67.06 10.98L67.06 10.98L67.06 10.98Q67.69 9.41 67.83 8.15L67.83 8.15L67.83 8.15Q66.88 7.42 66.02 7.42ZM76.68 2.49L76.68 2.49L76.68 2.49Q78.65 2.49 78.65 3.75L78.65 3.75L78.65 3.75Q78.65 4.47 78.01 4.91L78.01 4.91L78.01 4.91Q77.69 3.53 76.48 3.53L76.48 3.53L76.48 3.53Q75.64 3.53 75.08 4.38L75.08 4.38L75.08 4.38Q74.52 5.22 74.20 7.21L74.20 7.21L74.20 7.21Q75.87 7.21 76.45 6.80L76.45 6.80L76.45 6.80Q76.34 7.78 75.89 8.06L75.89 8.06L75.89 8.06Q75.45 8.34 74.02 8.37L74.02 8.37L74.02 8.37Q73.22 14.03 73.22 16.73L73.22 16.73L73.22 16.73Q73.22 18.05 73.75 18.65L73.75 18.65L73.75 18.65Q73.33 19.15 72.79 19.15L72.79 19.15L72.79 19.15Q71.69 19.15 71.69 17.37L71.69 17.37L71.69 17.37Q71.69 15.58 72.66 8.39L72.66 8.39L72.66 8.39Q71.61 8.41 71.08 8.75L71.08 8.75L71.08 8.75Q71.08 8.32 71.12 8.09L71.12 8.09L71.12 8.09Q71.16 7.85 71.33 7.63L71.33 7.63L71.33 7.63Q71.62 7.21 72.84 7.21L72.84 7.21L72.84 7.21Q73.25 5.24 74.26 3.86L74.26 3.86L74.26 3.86Q75.28 2.49 76.68 2.49ZM78.83 12.10L78.83 12.10L78.83 12.10Q78.46 12.10 78.08 12.05L78.08 12.05L78.08 12.05Q78.09 13.61 78.66 14.42L78.66 14.42L78.66 14.42Q79.23 15.23 80.25 15.23L80.25 15.23L80.25 15.23Q81.69 15.23 82.35 13.82L82.35 13.82L82.35 13.82Q82.68 14.14 82.68 14.60L82.68 14.60L82.68 14.60Q82.68 15.39 81.81 15.83L81.81 15.83L81.81 15.83Q80.93 16.27 79.98 16.27L79.98 16.27L79.98 16.27Q78.29 16.27 77.43 15.19L77.43 15.19L77.43 15.19Q76.57 14.11 76.57 12.40L76.57 12.40L76.57 12.40Q76.57 11.38 76.89 10.34L76.89 10.34L76.89 10.34Q77.21 9.30 77.77 8.42L77.77 8.42L77.77 8.42Q78.33 7.55 79.21 7.00L79.21 7.00L79.21 7.00Q80.09 6.45 81.14 6.45L81.14 6.45L81.14 6.45Q82.19 6.45 82.75 6.99L82.75 6.99L82.75 6.99Q83.30 7.52 83.30 8.36L83.30 8.36L83.30 8.36Q83.30 9.72 82.05 10.91L82.05 10.91L82.05 10.91Q80.79 12.10 78.83 12.10ZM81.83 8.82L81.83 8.82Q81.83 8.25 81.47 7.88L81.47 7.88L81.47 7.88Q81.12 7.50 80.49 7.50L80.49 7.50L80.49 7.50Q79.87 7.50 79.42 7.85L79.42 7.85L79.42 7.85Q78.96 8.20 78.69 8.79L78.69 8.79L78.69 8.79Q78.22 9.88 78.11 11.16L78.11 11.16L78.11 11.16Q78.44 11.20 78.74 11.20L78.74 11.20L78.74 11.20Q80.16 11.20 81.00 10.46L81.00 10.46L81.00 10.46Q81.83 9.73 81.83 8.82L81.83 8.82Z"></path></g><!----><g data-v-423bf9ae="" id="257ef943-5ecc-41e4-8cd6-12ac79d05bed" transform="matrix(1.3659710884094238,0,0,1.3659710884094238,72.51956176757812,-26.062143325805664)" stroke="none" fill="black"><path d="M62.764 44.531a2.1 2.1 0 0 1-2.1-2.1V21.398a2.1 2.1 0 0 1 4.2 0v21.033a2.1 2.1 0 0 1-2.1 2.1z"></path><path d="M67.85 85.175c-6.273 0-8.354-4.175-8.574-6.383a1.879 1.879 0 0 1-.012-.211V56.892c-1.271-1.115-3.859-3.521-5.975-6.351a2.101 2.101 0 0 1 .424-2.939 2.102 2.102 0 0 1 2.939.425c2.545 3.403 6.004 6.24 6.037 6.269.49.398.775.997.775 1.628v22.511c.1.526.727 2.541 4.385 2.541 3.75 0 4.311-2.101 4.387-2.531V55.923c0-.631.283-1.229.773-1.629 3.316-2.704 8.578-8.317 8.578-11.862V21.398a2.1 2.1 0 0 1 4.202 0v21.033c0 5.816-6.881 12.318-9.354 14.466v21.684c0 .069-.004.141-.01.211-.222 2.208-2.302 6.383-8.575 6.383z"></path><path d="M72.936 44.531a2.1 2.1 0 0 1-2.1-2.1V21.398a2.1 2.1 0 0 1 4.2 0v21.033a2.1 2.1 0 0 1-2.1 2.1zM47.564 57.901c4.381-1.559 10.749-8.36 10.749-15.47 0-5.554-2.719-20.76-2.832-21.404a2.102 2.102 0 0 0-2.068-1.729H27.334a2.1 2.1 0 0 0-2.067 1.729c-.114.645-2.832 15.851-2.832 21.404 0 6.802 6.198 13.569 10.642 15.429 1.528.639 3.545.891 5.197.985v17.822c-4.648.812-6.281 4.268-6.476 6.207a2.098 2.098 0 0 0 2.089 2.31H46.86a2.1 2.1 0 0 0 2.023-2.756c-.382-1.983-2.099-5.01-6.41-5.762V58.814c2.008-.143 3.82-.461 5.091-.913zm-12.865-3.916c-3.247-1.358-8.064-6.808-8.064-11.554 0-4.14 1.749-14.752 2.466-18.934h22.546c.717 4.182 2.467 14.793 2.467 18.934 0 4.954-4.829 10.399-7.958 11.513-1.292.459-3.673.756-6.066.756-2.306 0-4.321-.266-5.391-.715z"></path><g><path d="M40.203 51.819c-1.315 0-3.168-.118-4.531-.688-2.82-1.181-6.901-5.431-6.901-10.032 0-3.665 1.787-7.707 1.863-7.877a2.099 2.099 0 0 1 1.917-1.243h15.647c.829 0 1.581.487 1.918 1.244.075.17 1.861 4.211 1.861 7.876 0 4.337-3.7 8.895-7.006 10.072-1.647.586-3.883.648-4.768.648z"></path></g></g><!----></svg>